# xmcd
#
# Track frame offsets:
#	150
#	15011
#	30803
#	48203
#	66299
#	86977
#	104101
#	120996
#	137230
#	152283
#	172201
#	193510
#	211308
#	228434
#	244572
#	258990
#	274219
#	291182
#
# Disc length: 4115 seconds
#
# Revision: 1
# Processed by: cddbd v1.5.2PL0 Copyright (c) Steve Scherf et al.
# Submitted via: audiograbber 1.83.01
#
DISCID=f3101112
DTITLE=Pink - I'm Not Dead 
DYEAR=2007
DGENRE=Pop
TTITLE0=Stupid Girls 
TTITLE1=Who Knew 
TTITLE2=Long Way To Happy 
TTITLE3=Nobody Knows 
TTITLE4=Dear Mr. President Featuring Indigo Girls 
TTITLE5=I'm Not Dead 
TTITLE6='Cuz I Can 
TTITLE7=Leave Me Alone (I'm Lonely)
TTITLE8=U and Ur Hand 
TTITLE9=Runaway 
TTITLE10=The One That Got Away 
TTITLE11=I Got Money Now 
TTITLE12=Conversations With My 13 Year Old Self 
TTITLE13=Fingers - w/30 sec. of silence 
TTITLE14=I Have Seen The Rain (Featuring James T. Moore)
TTITLE15=dd
TTITLE16=dd
TTITLE17=dd
EXTD=
EXTT0=
EXTT1=
EXTT2=
EXTT3=
EXTT4=
EXTT5=
EXTT6=
EXTT7=
EXTT8=
EXTT9=
EXTT10=
EXTT11=
EXTT12=
EXTT13=
EXTT14=
EXTT15=
EXTT16=
EXTT17=
PLAYORDER=
